<svg width="13" height="14" viewBox="0 0 13 14" fill="none" xmlns="http://www.w3.org/2000/svg">
<path fill-rule="evenodd" clip-rule="evenodd" d="M7.59242 8.41383C6.1605 9.84575 3.83889 9.84575 2.40697 8.41383C0.975048 6.98191 0.975048 4.6603 2.40697 3.22838C3.83889 1.79646 6.1605 1.79646 7.59242 3.22838C9.02434 4.6603 9.02434 6.98191 7.59242 8.41383ZM8.0328 9.79679C6.07258 11.2962 3.25699 11.1495 1.46416 9.35664C-0.488461 7.40402 -0.48846 4.23819 1.46416 2.28557C3.41678 0.332951 6.58261 0.332951 8.53523 2.28557C10.328 4.07832 10.4748 6.89374 8.97558 8.85395L12.5423 12.4207L11.5995 13.3635L8.0328 9.79679Z" fill="#999999"/>
</svg>
